<?xml version="1.0" encoding="UTF-8"?>
<svg version="1.1" xmlns="http://www.w3.org/2000/svg" width="24" height="25">
<path d="M0 0 C7.92 0 15.84 0 24 0 C24 8.25 24 16.5 24 25 C16.08 25 8.16 25 0 25 C0 16.75 0 8.5 0 0 Z " fill="#BABECA" transform="translate(0,0)"/>
<path d="M0 0 C6.6 0 13.2 0 20 0 C20 3.3 20 6.6 20 10 C17.44051001 12.55948999 15.72792805 12.26068731 12.234375 12.2734375 C11.49703125 12.26570313 10.7596875 12.25796875 10 12.25 C8.89398437 12.26160156 8.89398437 12.26160156 7.765625 12.2734375 C2.2533196 12.2533196 2.2533196 12.2533196 0 10 C0 6.7 0 3.4 0 0 Z " fill="#F1F1F4" transform="translate(2,11)"/>
<path d="M0 0 C0.66 0 1.32 0 2 0 C2 0.66 2 1.32 2 2 C4.31 2 6.62 2 9 2 C9 2.33 9 2.66 9 3 C7.84371094 3.03867188 7.84371094 3.03867188 6.6640625 3.078125 C5.66117188 3.13484375 4.65828125 3.1915625 3.625 3.25 C2.62726562 3.29640625 1.62953125 3.3428125 0.6015625 3.390625 C-0.25695312 3.59171875 -1.11546875 3.7928125 -2 4 C-2.66 5.32 -3.32 6.64 -4 8 C2.27 8 8.54 8 15 8 C15 8.33 15 8.66 15 9 C8.73 9 2.46 9 -4 9 C-3.855625 10.794375 -3.71125 12.58875 -3.5625 14.4375 C-3.44068359 15.95150391 -3.44068359 15.95150391 -3.31640625 17.49609375 C-3.26788532 19.93640779 -3.26788532 19.93640779 -2 21 C0.85877909 21.23701239 3.69883297 21.42219182 6.5625 21.5625 C7.36880859 21.60568359 8.17511719 21.64886719 9.00585938 21.69335938 C11.00368805 21.79975262 13.0018207 21.90040888 15 22 C15 22.33 15 22.66 15 23 C11.87507749 23.05791844 8.75029234 23.09356746 5.625 23.125 C4.73554688 23.14175781 3.84609375 23.15851562 2.9296875 23.17578125 C2.07890625 23.18222656 1.228125 23.18867188 0.3515625 23.1953125 C-0.82672119 23.21102295 -0.82672119 23.21102295 -2.02880859 23.22705078 C-4 23 -4 23 -6 21 C-6.19856972 18.12657939 -6.27828946 15.37138012 -6.25 12.5 C-6.25773438 11.71496094 -6.26546875 10.92992187 -6.2734375 10.12109375 C-6.25330787 4.25330787 -6.25330787 4.25330787 -4 2 C-2.68 2 -1.36 2 0 2 C0 1.34 0 0.68 0 0 Z " fill="#9197AB" transform="translate(6,1)"/>
<path d="M0 0 C7.92 0 15.84 0 24 0 C24 1.65 24 3.3 24 5 C22.02 4.34 20.04 3.68 18 3 C18 2.34 18 1.68 18 1 C17.34 1 16.68 1 16 1 C16 1.66 16 2.32 16 3 C13.36 3 10.72 3 8 3 C8 2.34 8 1.68 8 1 C7.34 1 6.68 1 6 1 C6 1.66 6 2.32 6 3 C4.02 3.66 2.04 4.32 0 5 C0 3.35 0 1.7 0 0 Z " fill="#F2F2F5" transform="translate(0,0)"/>
<path d="M0 0 C5.94 0 11.88 0 18 0 C18.33 0.99 18.66 1.98 19 3 C12.4 3 5.8 3 -1 3 C-0.67 2.01 -0.34 1.02 0 0 Z " fill="#FDFDFE" transform="translate(3,5)"/>
<path d="M0 0 C2.64 0 5.28 0 8 0 C7.01 0.495 7.01 0.495 6 1 C6 1.66 6 2.32 6 3 C4.02 3.66 2.04 4.32 0 5 C0 3.35 0 1.7 0 0 Z " fill="#F6F7F8" transform="translate(0,0)"/>
</svg>
